<svg xmlns="http://www.w3.org/2000/svg" width="480" height="184" viewBox="0 0 480 184" role="img" aria-labelledby="title desc">
<title id="title">DXForge</title>
<desc id="desc">Automatisch erzeugter Projekteingang. Der vollständige Text und Link stehen auch in der README.</desc>
<path d="M8 0H472V4H476V8H480V176H476V180H472V184H8V180H4V176H0V8H4V4H8Z" fill="#111c34"/>
<path d="M8 1H472M1 8V176M479 8V176M8 183H472" stroke="#283753" fill="none"/>
<rect x="24" y="25" width="5" height="5" fill="#90d99b"/>
<text x="38" y="31" fill="#90d99b" font-size="12" font-weight="700" font-family="monospace">PROJECT 02</text>
<text x="24" y="69" fill="#edf3ff" font-size="26" font-weight="700" font-family="Arial,Helvetica,sans-serif">DXForge</text>
<text x="24" y="159" fill="#a9bdd8" font-size="13" font-weight="400" font-family="Arial,Helvetica,sans-serif">Lua</text>
<g transform="translate(425 126) scale(1)" shape-rendering="crispEdges">
<path d="M0 10H5V5H10V0H28V5H33V10H38V45H0Z" fill="#344969"/>
<path d="M7 12H12V7H26V12H31V45H7Z" fill="#0b1326"/>
<path d="M12 13H26V40H12Z" fill="#90d99b"/>
<path d="M12 13H17V40H12Z" fill="#f1f6ff" opacity=".3"/>
<path d="M-5 45H43V49H-5Z" fill="#6c80a0"/>
</g>
</svg>
