<svg xmlns="http://www.w3.org/2000/svg" width="480" height="324" viewBox="0 0 480 324" role="img" aria-labelledby="title desc">
<title id="title">Lass uns reden</title>
<desc id="desc">Eine Frage oder Idee? GitHub-Issue bei PixelGG/PixelGG öffnen.</desc>
<rect x="0" y="0" width="480" height="324" fill="#10192e"/>
<rect x="8" y="0" width="4" height="324" fill="#344969"/>
<rect x="12" y="0" width="4" height="324" fill="#1a2641"/>
<rect x="468" y="0" width="4" height="324" fill="#344969"/>
<rect x="464" y="0" width="4" height="324" fill="#1a2641"/>
<rect x="36" y="26" width="408" height="2" fill="#344969"/>
<rect x="36" y="26" width="44" height="2" fill="#ffcc7f"/>
<g shape-rendering="crispEdges"><path d="M36 57h4v4h-4zM40 57h4v4h-4zM36 61h4v4h-4zM40 61h4v4h-4zM36 65h4v4h-4zM40 65h4v4h-4zM36 69h4v4h-4zM40 69h4v4h-4zM36 73h4v4h-4zM40 73h4v4h-4zM36 77h4v4h-4zM40 77h4v4h-4zM36 81h4v4h-4zM40 81h4v4h-4zM44 81h4v4h-4zM48 81h4v4h-4zM52 81h4v4h-4zM64 57h4v4h-4zM68 57h4v4h-4zM72 57h4v4h-4zM60 61h4v4h-4zM64 61h4v4h-4zM72 61h4v4h-4zM76 61h4v4h-4zM60 65h4v4h-4zM64 65h4v4h-4zM72 65h4v4h-4zM76 65h4v4h-4zM60 69h4v4h-4zM64 69h4v4h-4zM68 69h4v4h-4zM72 69h4v4h-4zM76 69h4v4h-4zM60 73h4v4h-4zM64 73h4v4h-4zM72 73h4v4h-4zM76 73h4v4h-4zM60 77h4v4h-4zM64 77h4v4h-4zM72 77h4v4h-4zM76 77h4v4h-4zM60 81h4v4h-4zM64 81h4v4h-4zM72 81h4v4h-4zM76 81h4v4h-4zM88 57h4v4h-4zM92 57h4v4h-4zM96 57h4v4h-4zM100 57h4v4h-4zM84 61h4v4h-4zM88 61h4v4h-4zM84 65h4v4h-4zM88 65h4v4h-4zM88 69h4v4h-4zM92 69h4v4h-4zM96 69h4v4h-4zM96 73h4v4h-4zM100 73h4v4h-4zM96 77h4v4h-4zM100 77h4v4h-4zM84 81h4v4h-4zM88 81h4v4h-4zM92 81h4v4h-4zM96 81h4v4h-4zM112 57h4v4h-4zM116 57h4v4h-4zM120 57h4v4h-4zM124 57h4v4h-4zM108 61h4v4h-4zM112 61h4v4h-4zM108 65h4v4h-4zM112 65h4v4h-4zM112 69h4v4h-4zM116 69h4v4h-4zM120 69h4v4h-4zM120 73h4v4h-4zM124 73h4v4h-4zM120 77h4v4h-4zM124 77h4v4h-4zM108 81h4v4h-4zM112 81h4v4h-4zM116 81h4v4h-4zM120 81h4v4h-4zM156 57h4v4h-4zM160 57h4v4h-4zM168 57h4v4h-4zM172 57h4v4h-4zM156 61h4v4h-4zM160 61h4v4h-4zM168 61h4v4h-4zM172 61h4v4h-4zM156 65h4v4h-4zM160 65h4v4h-4zM168 65h4v4h-4zM172 65h4v4h-4zM156 69h4v4h-4zM160 69h4v4h-4zM168 69h4v4h-4zM172 69h4v4h-4zM156 73h4v4h-4zM160 73h4v4h-4zM168 73h4v4h-4zM172 73h4v4h-4zM156 77h4v4h-4zM160 77h4v4h-4zM168 77h4v4h-4zM172 77h4v4h-4zM160 81h4v4h-4zM164 81h4v4h-4zM168 81h4v4h-4zM180 57h4v4h-4zM184 57h4v4h-4zM196 57h4v4h-4zM180 61h4v4h-4zM184 61h4v4h-4zM196 61h4v4h-4zM180 65h4v4h-4zM184 65h4v4h-4zM188 65h4v4h-4zM196 65h4v4h-4zM180 69h4v4h-4zM184 69h4v4h-4zM188 69h4v4h-4zM192 69h4v4h-4zM196 69h4v4h-4zM180 73h4v4h-4zM184 73h4v4h-4zM192 73h4v4h-4zM196 73h4v4h-4zM180 77h4v4h-4zM184 77h4v4h-4zM196 77h4v4h-4zM180 81h4v4h-4zM184 81h4v4h-4zM196 81h4v4h-4zM208 57h4v4h-4zM212 57h4v4h-4zM216 57h4v4h-4zM220 57h4v4h-4zM204 61h4v4h-4zM208 61h4v4h-4zM204 65h4v4h-4zM208 65h4v4h-4zM208 69h4v4h-4zM212 69h4v4h-4zM216 69h4v4h-4zM216 73h4v4h-4zM220 73h4v4h-4zM216 77h4v4h-4zM220 77h4v4h-4zM204 81h4v4h-4zM208 81h4v4h-4zM212 81h4v4h-4zM216 81h4v4h-4zM252 57h4v4h-4zM256 57h4v4h-4zM260 57h4v4h-4zM264 57h4v4h-4zM252 61h4v4h-4zM256 61h4v4h-4zM264 61h4v4h-4zM268 61h4v4h-4zM252 65h4v4h-4zM256 65h4v4h-4zM264 65h4v4h-4zM268 65h4v4h-4zM252 69h4v4h-4zM256 69h4v4h-4zM260 69h4v4h-4zM264 69h4v4h-4zM252 73h4v4h-4zM256 73h4v4h-4zM260 73h4v4h-4zM252 77h4v4h-4zM256 77h4v4h-4zM264 77h4v4h-4zM252 81h4v4h-4zM256 81h4v4h-4zM264 81h4v4h-4zM268 81h4v4h-4zM276 57h4v4h-4zM280 57h4v4h-4zM284 57h4v4h-4zM288 57h4v4h-4zM292 57h4v4h-4zM276 61h4v4h-4zM280 61h4v4h-4zM276 65h4v4h-4zM280 65h4v4h-4zM276 69h4v4h-4zM280 69h4v4h-4zM284 69h4v4h-4zM288 69h4v4h-4zM276 73h4v4h-4zM280 73h4v4h-4zM276 77h4v4h-4zM280 77h4v4h-4zM276 81h4v4h-4zM280 81h4v4h-4zM284 81h4v4h-4zM288 81h4v4h-4zM292 81h4v4h-4zM300 57h4v4h-4zM304 57h4v4h-4zM308 57h4v4h-4zM312 57h4v4h-4zM300 61h4v4h-4zM304 61h4v4h-4zM312 61h4v4h-4zM316 61h4v4h-4zM300 65h4v4h-4zM304 65h4v4h-4zM312 65h4v4h-4zM316 65h4v4h-4zM300 69h4v4h-4zM304 69h4v4h-4zM312 69h4v4h-4zM316 69h4v4h-4zM300 73h4v4h-4zM304 73h4v4h-4zM312 73h4v4h-4zM316 73h4v4h-4zM300 77h4v4h-4zM304 77h4v4h-4zM312 77h4v4h-4zM316 77h4v4h-4zM300 81h4v4h-4zM304 81h4v4h-4zM308 81h4v4h-4zM312 81h4v4h-4zM324 57h4v4h-4zM328 57h4v4h-4zM332 57h4v4h-4zM336 57h4v4h-4zM340 57h4v4h-4zM324 61h4v4h-4zM328 61h4v4h-4zM324 65h4v4h-4zM328 65h4v4h-4zM324 69h4v4h-4zM328 69h4v4h-4zM332 69h4v4h-4zM336 69h4v4h-4zM324 73h4v4h-4zM328 73h4v4h-4zM324 77h4v4h-4zM328 77h4v4h-4zM324 81h4v4h-4zM328 81h4v4h-4zM332 81h4v4h-4zM336 81h4v4h-4zM340 81h4v4h-4zM348 57h4v4h-4zM352 57h4v4h-4zM364 57h4v4h-4zM348 61h4v4h-4zM352 61h4v4h-4zM364 61h4v4h-4zM348 65h4v4h-4zM352 65h4v4h-4zM356 65h4v4h-4zM364 65h4v4h-4zM348 69h4v4h-4zM352 69h4v4h-4zM356 69h4v4h-4zM360 69h4v4h-4zM364 69h4v4h-4zM348 73h4v4h-4zM352 73h4v4h-4zM360 73h4v4h-4zM364 73h4v4h-4zM348 77h4v4h-4zM352 77h4v4h-4zM364 77h4v4h-4zM348 81h4v4h-4zM352 81h4v4h-4zM364 81h4v4h-4z" fill="#1a2641"/><path d="M36 54h4v4h-4zM40 54h4v4h-4zM36 58h4v4h-4zM40 58h4v4h-4zM36 62h4v4h-4zM40 62h4v4h-4zM36 66h4v4h-4zM40 66h4v4h-4zM36 70h4v4h-4zM40 70h4v4h-4zM36 74h4v4h-4zM40 74h4v4h-4zM36 78h4v4h-4zM40 78h4v4h-4zM44 78h4v4h-4zM48 78h4v4h-4zM52 78h4v4h-4zM64 54h4v4h-4zM68 54h4v4h-4zM72 54h4v4h-4zM60 58h4v4h-4zM64 58h4v4h-4zM72 58h4v4h-4zM76 58h4v4h-4zM60 62h4v4h-4zM64 62h4v4h-4zM72 62h4v4h-4zM76 62h4v4h-4zM60 66h4v4h-4zM64 66h4v4h-4zM68 66h4v4h-4zM72 66h4v4h-4zM76 66h4v4h-4zM60 70h4v4h-4zM64 70h4v4h-4zM72 70h4v4h-4zM76 70h4v4h-4zM60 74h4v4h-4zM64 74h4v4h-4zM72 74h4v4h-4zM76 74h4v4h-4zM60 78h4v4h-4zM64 78h4v4h-4zM72 78h4v4h-4zM76 78h4v4h-4zM88 54h4v4h-4zM92 54h4v4h-4zM96 54h4v4h-4zM100 54h4v4h-4zM84 58h4v4h-4zM88 58h4v4h-4zM84 62h4v4h-4zM88 62h4v4h-4zM88 66h4v4h-4zM92 66h4v4h-4zM96 66h4v4h-4zM96 70h4v4h-4zM100 70h4v4h-4zM96 74h4v4h-4zM100 74h4v4h-4zM84 78h4v4h-4zM88 78h4v4h-4zM92 78h4v4h-4zM96 78h4v4h-4zM112 54h4v4h-4zM116 54h4v4h-4zM120 54h4v4h-4zM124 54h4v4h-4zM108 58h4v4h-4zM112 58h4v4h-4zM108 62h4v4h-4zM112 62h4v4h-4zM112 66h4v4h-4zM116 66h4v4h-4zM120 66h4v4h-4zM120 70h4v4h-4zM124 70h4v4h-4zM120 74h4v4h-4zM124 74h4v4h-4zM108 78h4v4h-4zM112 78h4v4h-4zM116 78h4v4h-4zM120 78h4v4h-4zM156 54h4v4h-4zM160 54h4v4h-4zM168 54h4v4h-4zM172 54h4v4h-4zM156 58h4v4h-4zM160 58h4v4h-4zM168 58h4v4h-4zM172 58h4v4h-4zM156 62h4v4h-4zM160 62h4v4h-4zM168 62h4v4h-4zM172 62h4v4h-4zM156 66h4v4h-4zM160 66h4v4h-4zM168 66h4v4h-4zM172 66h4v4h-4zM156 70h4v4h-4zM160 70h4v4h-4zM168 70h4v4h-4zM172 70h4v4h-4zM156 74h4v4h-4zM160 74h4v4h-4zM168 74h4v4h-4zM172 74h4v4h-4zM160 78h4v4h-4zM164 78h4v4h-4zM168 78h4v4h-4zM180 54h4v4h-4zM184 54h4v4h-4zM196 54h4v4h-4zM180 58h4v4h-4zM184 58h4v4h-4zM196 58h4v4h-4zM180 62h4v4h-4zM184 62h4v4h-4zM188 62h4v4h-4zM196 62h4v4h-4zM180 66h4v4h-4zM184 66h4v4h-4zM188 66h4v4h-4zM192 66h4v4h-4zM196 66h4v4h-4zM180 70h4v4h-4zM184 70h4v4h-4zM192 70h4v4h-4zM196 70h4v4h-4zM180 74h4v4h-4zM184 74h4v4h-4zM196 74h4v4h-4zM180 78h4v4h-4zM184 78h4v4h-4zM196 78h4v4h-4zM208 54h4v4h-4zM212 54h4v4h-4zM216 54h4v4h-4zM220 54h4v4h-4zM204 58h4v4h-4zM208 58h4v4h-4zM204 62h4v4h-4zM208 62h4v4h-4zM208 66h4v4h-4zM212 66h4v4h-4zM216 66h4v4h-4zM216 70h4v4h-4zM220 70h4v4h-4zM216 74h4v4h-4zM220 74h4v4h-4zM204 78h4v4h-4zM208 78h4v4h-4zM212 78h4v4h-4zM216 78h4v4h-4zM252 54h4v4h-4zM256 54h4v4h-4zM260 54h4v4h-4zM264 54h4v4h-4zM252 58h4v4h-4zM256 58h4v4h-4zM264 58h4v4h-4zM268 58h4v4h-4zM252 62h4v4h-4zM256 62h4v4h-4zM264 62h4v4h-4zM268 62h4v4h-4zM252 66h4v4h-4zM256 66h4v4h-4zM260 66h4v4h-4zM264 66h4v4h-4zM252 70h4v4h-4zM256 70h4v4h-4zM260 70h4v4h-4zM252 74h4v4h-4zM256 74h4v4h-4zM264 74h4v4h-4zM252 78h4v4h-4zM256 78h4v4h-4zM264 78h4v4h-4zM268 78h4v4h-4zM276 54h4v4h-4zM280 54h4v4h-4zM284 54h4v4h-4zM288 54h4v4h-4zM292 54h4v4h-4zM276 58h4v4h-4zM280 58h4v4h-4zM276 62h4v4h-4zM280 62h4v4h-4zM276 66h4v4h-4zM280 66h4v4h-4zM284 66h4v4h-4zM288 66h4v4h-4zM276 70h4v4h-4zM280 70h4v4h-4zM276 74h4v4h-4zM280 74h4v4h-4zM276 78h4v4h-4zM280 78h4v4h-4zM284 78h4v4h-4zM288 78h4v4h-4zM292 78h4v4h-4zM300 54h4v4h-4zM304 54h4v4h-4zM308 54h4v4h-4zM312 54h4v4h-4zM300 58h4v4h-4zM304 58h4v4h-4zM312 58h4v4h-4zM316 58h4v4h-4zM300 62h4v4h-4zM304 62h4v4h-4zM312 62h4v4h-4zM316 62h4v4h-4zM300 66h4v4h-4zM304 66h4v4h-4zM312 66h4v4h-4zM316 66h4v4h-4zM300 70h4v4h-4zM304 70h4v4h-4zM312 70h4v4h-4zM316 70h4v4h-4zM300 74h4v4h-4zM304 74h4v4h-4zM312 74h4v4h-4zM316 74h4v4h-4zM300 78h4v4h-4zM304 78h4v4h-4zM308 78h4v4h-4zM312 78h4v4h-4zM324 54h4v4h-4zM328 54h4v4h-4zM332 54h4v4h-4zM336 54h4v4h-4zM340 54h4v4h-4zM324 58h4v4h-4zM328 58h4v4h-4zM324 62h4v4h-4zM328 62h4v4h-4zM324 66h4v4h-4zM328 66h4v4h-4zM332 66h4v4h-4zM336 66h4v4h-4zM324 70h4v4h-4zM328 70h4v4h-4zM324 74h4v4h-4zM328 74h4v4h-4zM324 78h4v4h-4zM328 78h4v4h-4zM332 78h4v4h-4zM336 78h4v4h-4zM340 78h4v4h-4zM348 54h4v4h-4zM352 54h4v4h-4zM364 54h4v4h-4zM348 58h4v4h-4zM352 58h4v4h-4zM364 58h4v4h-4zM348 62h4v4h-4zM352 62h4v4h-4zM356 62h4v4h-4zM364 62h4v4h-4zM348 66h4v4h-4zM352 66h4v4h-4zM356 66h4v4h-4zM360 66h4v4h-4zM364 66h4v4h-4zM348 70h4v4h-4zM352 70h4v4h-4zM360 70h4v4h-4zM364 70h4v4h-4zM348 74h4v4h-4zM352 74h4v4h-4zM364 74h4v4h-4zM348 78h4v4h-4zM352 78h4v4h-4zM364 78h4v4h-4z" fill="#edf0d9"/></g>
<text x="36" y="122" font-family="monospace" font-size="22" font-weight="400" fill="#c1ccda">Eine Frage oder Idee?</text>
<text x="36" y="156" font-family="monospace" font-size="22" font-weight="400" fill="#c1ccda">Schreib mir über ein</text>
<text x="36" y="190" font-family="monospace" font-size="22" font-weight="400" fill="#c1ccda">GitHub-Issue.</text>
<g shape-rendering="crispEdges">
<path d="M44 217H436v4h4v4h4v48h-4v4h-4v4H44v-4h-4v-4h-4V225h4v-4h4Z" fill="#426c67"/>
<rect x="44" y="225" width="392" height="48" fill="#24474a"/>
<path transform="translate(396 240)" d="M12 0h4v4h4v4h4v4h-4v4h-4v4h-4v-8H0V8h12Z" fill="#82cbb9"/>
</g>
<text x="58" y="258" font-family="monospace" font-size="25" font-weight="400" fill="#edf0d9">GitHub-Issue öffnen</text>
</svg>
