<svg xmlns="http://www.w3.org/2000/svg" width="1000" height="132" viewBox="0 0 1000 132" role="img" aria-labelledby="title desc">
<title id="title">PixelGG</title>
<desc id="desc">GitHub-Profil von PixelGG</desc>
<path d="M0 0H1000V104h-8v8h-8v8h-8v8H24v-8h-8v-8H8v-8H0Z" fill="#10192e"/>
<style>
        @keyframes pg-endcap-firefly-drift{0%,100%{opacity:.25;transform:translate(0,0)}40%{opacity:.7}65%{opacity:.35;transform:translate(3px,-4px)}}
        .pg-endcap-firefly-a{animation:pg-endcap-firefly-drift 9s steps(5,end) infinite}
        .pg-endcap-firefly-b{animation:pg-endcap-firefly-drift 11s steps(5,end) -4s infinite}
        @media(prefers-reduced-motion:reduce){.pg-endcap-firefly-a,.pg-endcap-firefly-b{animation:none!important}}
        </style>
<rect x="44" y="4" width="912" height="2" fill="#344969"/>
<text x="44" y="48" font-family="monospace" font-size="23" font-weight="400" fill="#a9bdd8">PixelGG</text>
<g shape-rendering="crispEdges">
<rect x="848" y="93" width="4" height="20" fill="#344255"/>
<path d="M848 79h4v6h4v6h4v6h4v6h-28v-6h4v-6h4v-6h4Z" fill="#294251"/>
<rect x="870" y="88" width="4" height="25" fill="#344255"/>
<path d="M870 68h4v6h4v6h4v6h4v6h-28v-6h4v-6h4v-6h4Z" fill="#294251"/>
<rect x="898" y="95" width="4" height="18" fill="#344255"/>
<path d="M898 83h4v6h4v6h4v6h4v6h-28v-6h4v-6h4v-6h4Z" fill="#294251"/>
<rect x="922" y="90" width="4" height="23" fill="#344255"/>
<path d="M922 73h4v6h4v6h4v6h4v6h-28v-6h4v-6h4v-6h4Z" fill="#294251"/>
<rect x="946" y="97" width="4" height="16" fill="#344255"/>
<path d="M946 87h4v6h4v6h4v6h4v6h-28v-6h4v-6h4v-6h4Z" fill="#294251"/>
<g class="pg-endcap-firefly-a" opacity=".45"><rect x="833" y="67" width="3" height="3" fill="#82cbb9"/></g>
<g class="pg-endcap-firefly-b" opacity=".35"><rect x="934" y="50" width="3" height="3" fill="#ffcc7f"/></g>
<path d="M10 0V102h8v8h8v8H974v-8h8v-8h8V0" fill="none" stroke="#344969" stroke-width="4"/>
<path d="M14 0V98h8v8h8v8H970v-8h8v-8h8V0" fill="none" stroke="#1a2641" stroke-width="4"/>
</g>
</svg>
