<svg xmlns="http://www.w3.org/2000/svg" width="960" height="480" viewBox="0 0 960 480" role="img" aria-labelledby="title desc">
<title id="title">Mike / PixelGG — From pixels to systems.</title>
<desc id="desc">Eigene Pixel-P-Marke aus orangefarbenen, räumlich gezeichneten Kacheln. Game-Systeme, Oberflächen und Werkzeuge.</desc>
<style>.tile{animation:assemble 900ms cubic-bezier(.2,.8,.2,1) both}@keyframes assemble{from{opacity:0;transform:translateY(12px)}to{opacity:1;transform:translateY(0)}}@media(prefers-reduced-motion:reduce){.tile{animation:none}}</style>
<rect x="0" y="0" width="960" height="480" fill="#f2f0e9" rx="14"/>
<rect x="48" y="34" width="9" height="9" fill="#b83d1b" />
<text x="68" y="43" fill="#62635f" font-family="'Courier New',monospace" font-size="13" font-weight="400" letter-spacing="1.4">MIKE / DEVELOPER</text>
<text x="912" y="43" fill="#62635f" font-family="'Courier New',monospace" font-size="12" font-weight="400" text-anchor="end">INDEPENDENT WORK / GERMANY</text>
<path d="M48 72L912 72" stroke="#ccc9c0" fill="none" />
<text x="43" y="196" fill="#232629" font-family="Arial,Helvetica,sans-serif" font-size="100" font-weight="700" letter-spacing="-6">PixelGG</text>
<rect x="409" y="180" width="15" height="15" fill="#b83d1b" />
<text x="48" y="270" fill="#232629" font-family="Arial,Helvetica,sans-serif" font-size="45" font-weight="400" letter-spacing="-1.8">From pixels</text>
<text x="48" y="323" fill="#62635f" font-family="Arial,Helvetica,sans-serif" font-size="45" font-weight="400" letter-spacing="-1.8">to systems.</text>
<text x="50" y="371" fill="#62635f" font-family="'Courier New',monospace" font-size="12" font-weight="400" letter-spacing="1.8">CODE. FORM. FUNCTION.</text>
<rect x="670" y="120" width="34" height="34" fill="#dfdcd4" />
<rect x="709" y="120" width="34" height="34" fill="#dfdcd4" />
<rect x="748" y="120" width="34" height="34" fill="#dfdcd4" />
<rect x="787" y="120" width="34" height="34" fill="#dfdcd4" />
<rect x="826" y="120" width="34" height="34" fill="#dfdcd4" />
<rect x="670" y="159" width="34" height="34" fill="#dfdcd4" />
<rect x="709" y="159" width="34" height="34" fill="#dfdcd4" />
<rect x="748" y="159" width="34" height="34" fill="#dfdcd4" />
<rect x="787" y="159" width="34" height="34" fill="#dfdcd4" />
<rect x="826" y="159" width="34" height="34" fill="#dfdcd4" />
<rect x="670" y="198" width="34" height="34" fill="#dfdcd4" />
<rect x="709" y="198" width="34" height="34" fill="#dfdcd4" />
<rect x="748" y="198" width="34" height="34" fill="#dfdcd4" />
<rect x="787" y="198" width="34" height="34" fill="#dfdcd4" />
<rect x="826" y="198" width="34" height="34" fill="#dfdcd4" />
<rect x="670" y="237" width="34" height="34" fill="#dfdcd4" />
<rect x="709" y="237" width="34" height="34" fill="#dfdcd4" />
<rect x="748" y="237" width="34" height="34" fill="#dfdcd4" />
<rect x="787" y="237" width="34" height="34" fill="#dfdcd4" />
<rect x="826" y="237" width="34" height="34" fill="#dfdcd4" />
<rect x="670" y="276" width="34" height="34" fill="#dfdcd4" />
<rect x="709" y="276" width="34" height="34" fill="#dfdcd4" />
<rect x="748" y="276" width="34" height="34" fill="#dfdcd4" />
<rect x="787" y="276" width="34" height="34" fill="#dfdcd4" />
<rect x="826" y="276" width="34" height="34" fill="#dfdcd4" />
<rect x="670" y="315" width="34" height="34" fill="#dfdcd4" />
<rect x="709" y="315" width="34" height="34" fill="#dfdcd4" />
<rect x="748" y="315" width="34" height="34" fill="#dfdcd4" />
<rect x="787" y="315" width="34" height="34" fill="#dfdcd4" />
<rect x="826" y="315" width="34" height="34" fill="#dfdcd4" />
<rect x="670" y="354" width="34" height="34" fill="#dfdcd4" />
<rect x="709" y="354" width="34" height="34" fill="#dfdcd4" />
<rect x="748" y="354" width="34" height="34" fill="#dfdcd4" />
<rect x="787" y="354" width="34" height="34" fill="#dfdcd4" />
<rect x="826" y="354" width="34" height="34" fill="#dfdcd4" />
<g class="tile" style="animation-delay:0ms">
<path d="M704 120l7 7v34l-7 -7Z" fill="#87351f"/>
<path d="M670 154l7 7h34l-7 -7Z" fill="#a94126"/>
<rect x="670" y="120" width="34" height="34" fill="#ffad7d" />
<path d="M671 121L703 121" stroke="#ffe1bf" fill="none" opacity=".55"/>
</g>
<g class="tile" style="animation-delay:18ms">
<path d="M743 120l7 7v34l-7 -7Z" fill="#87351f"/>
<path d="M709 154l7 7h34l-7 -7Z" fill="#a94126"/>
<rect x="709" y="120" width="34" height="34" fill="#ffad7d" />
<path d="M710 121L742 121" stroke="#ffe1bf" fill="none" opacity=".55"/>
</g>
<g class="tile" style="animation-delay:36ms">
<path d="M782 120l7 7v34l-7 -7Z" fill="#87351f"/>
<path d="M748 154l7 7h34l-7 -7Z" fill="#a94126"/>
<rect x="748" y="120" width="34" height="34" fill="#ffad7d" />
<path d="M749 121L781 121" stroke="#ffe1bf" fill="none" opacity=".55"/>
</g>
<g class="tile" style="animation-delay:54ms">
<path d="M821 120l7 7v34l-7 -7Z" fill="#87351f"/>
<path d="M787 154l7 7h34l-7 -7Z" fill="#a94126"/>
<rect x="787" y="120" width="34" height="34" fill="#ffad7d" />
<path d="M788 121L820 121" stroke="#ffe1bf" fill="none" opacity=".55"/>
</g>
<g class="tile" style="animation-delay:90ms">
<path d="M704 159l7 7v34l-7 -7Z" fill="#87351f"/>
<path d="M670 193l7 7h34l-7 -7Z" fill="#a94126"/>
<rect x="670" y="159" width="34" height="34" fill="#ff9868" />
<path d="M671 160L703 160" stroke="#ffe1bf" fill="none" opacity=".55"/>
</g>
<g class="tile" style="animation-delay:108ms">
<path d="M743 159l7 7v34l-7 -7Z" fill="#87351f"/>
<path d="M709 193l7 7h34l-7 -7Z" fill="#a94126"/>
<rect x="709" y="159" width="34" height="34" fill="#ff9868" />
<path d="M710 160L742 160" stroke="#ffe1bf" fill="none" opacity=".55"/>
</g>
<g class="tile" style="animation-delay:144ms">
<path d="M821 159l7 7v34l-7 -7Z" fill="#87351f"/>
<path d="M787 193l7 7h34l-7 -7Z" fill="#a94126"/>
<rect x="787" y="159" width="34" height="34" fill="#ff9868" />
<path d="M788 160L820 160" stroke="#ffe1bf" fill="none" opacity=".55"/>
</g>
<g class="tile" style="animation-delay:162ms">
<path d="M860 159l7 7v34l-7 -7Z" fill="#87351f"/>
<path d="M826 193l7 7h34l-7 -7Z" fill="#a94126"/>
<rect x="826" y="159" width="34" height="34" fill="#ff9868" />
<path d="M827 160L859 160" stroke="#ffe1bf" fill="none" opacity=".55"/>
</g>
<g class="tile" style="animation-delay:180ms">
<path d="M704 198l7 7v34l-7 -7Z" fill="#87351f"/>
<path d="M670 232l7 7h34l-7 -7Z" fill="#a94126"/>
<rect x="670" y="198" width="34" height="34" fill="#ff8354" />
<path d="M671 199L703 199" stroke="#ffe1bf" fill="none" opacity=".55"/>
</g>
<g class="tile" style="animation-delay:198ms">
<path d="M743 198l7 7v34l-7 -7Z" fill="#87351f"/>
<path d="M709 232l7 7h34l-7 -7Z" fill="#a94126"/>
<rect x="709" y="198" width="34" height="34" fill="#ff8354" />
<path d="M710 199L742 199" stroke="#ffe1bf" fill="none" opacity=".55"/>
</g>
<g class="tile" style="animation-delay:234ms">
<path d="M821 198l7 7v34l-7 -7Z" fill="#87351f"/>
<path d="M787 232l7 7h34l-7 -7Z" fill="#a94126"/>
<rect x="787" y="198" width="34" height="34" fill="#ff8354" />
<path d="M788 199L820 199" stroke="#ffe1bf" fill="none" opacity=".55"/>
</g>
<g class="tile" style="animation-delay:252ms">
<path d="M860 198l7 7v34l-7 -7Z" fill="#87351f"/>
<path d="M826 232l7 7h34l-7 -7Z" fill="#a94126"/>
<rect x="826" y="198" width="34" height="34" fill="#ff8354" />
<path d="M827 199L859 199" stroke="#ffe1bf" fill="none" opacity=".55"/>
</g>
<g class="tile" style="animation-delay:270ms">
<path d="M704 237l7 7v34l-7 -7Z" fill="#87351f"/>
<path d="M670 271l7 7h34l-7 -7Z" fill="#a94126"/>
<rect x="670" y="237" width="34" height="34" fill="#f36c43" />
<path d="M671 238L703 238" stroke="#ffe1bf" fill="none" opacity=".55"/>
</g>
<g class="tile" style="animation-delay:288ms">
<path d="M743 237l7 7v34l-7 -7Z" fill="#87351f"/>
<path d="M709 271l7 7h34l-7 -7Z" fill="#a94126"/>
<rect x="709" y="237" width="34" height="34" fill="#f36c43" />
<path d="M710 238L742 238" stroke="#ffe1bf" fill="none" opacity=".55"/>
</g>
<g class="tile" style="animation-delay:306ms">
<path d="M782 237l7 7v34l-7 -7Z" fill="#87351f"/>
<path d="M748 271l7 7h34l-7 -7Z" fill="#a94126"/>
<rect x="748" y="237" width="34" height="34" fill="#f36c43" />
<path d="M749 238L781 238" stroke="#ffe1bf" fill="none" opacity=".55"/>
</g>
<g class="tile" style="animation-delay:324ms">
<path d="M821 237l7 7v34l-7 -7Z" fill="#87351f"/>
<path d="M787 271l7 7h34l-7 -7Z" fill="#a94126"/>
<rect x="787" y="237" width="34" height="34" fill="#f36c43" />
<path d="M788 238L820 238" stroke="#ffe1bf" fill="none" opacity=".55"/>
</g>
<g class="tile" style="animation-delay:360ms">
<path d="M704 276l7 7v34l-7 -7Z" fill="#87351f"/>
<path d="M670 310l7 7h34l-7 -7Z" fill="#a94126"/>
<rect x="670" y="276" width="34" height="34" fill="#e35b35" />
<path d="M671 277L703 277" stroke="#ffe1bf" fill="none" opacity=".55"/>
</g>
<g class="tile" style="animation-delay:378ms">
<path d="M743 276l7 7v34l-7 -7Z" fill="#87351f"/>
<path d="M709 310l7 7h34l-7 -7Z" fill="#a94126"/>
<rect x="709" y="276" width="34" height="34" fill="#e35b35" />
<path d="M710 277L742 277" stroke="#ffe1bf" fill="none" opacity=".55"/>
</g>
<g class="tile" style="animation-delay:450ms">
<path d="M704 315l7 7v34l-7 -7Z" fill="#87351f"/>
<path d="M670 349l7 7h34l-7 -7Z" fill="#a94126"/>
<rect x="670" y="315" width="34" height="34" fill="#ce4b2b" />
<path d="M671 316L703 316" stroke="#ffe1bf" fill="none" opacity=".55"/>
</g>
<g class="tile" style="animation-delay:468ms">
<path d="M743 315l7 7v34l-7 -7Z" fill="#87351f"/>
<path d="M709 349l7 7h34l-7 -7Z" fill="#a94126"/>
<rect x="709" y="315" width="34" height="34" fill="#ce4b2b" />
<path d="M710 316L742 316" stroke="#ffe1bf" fill="none" opacity=".55"/>
</g>
<g class="tile" style="animation-delay:540ms">
<path d="M704 354l7 7v34l-7 -7Z" fill="#87351f"/>
<path d="M670 388l7 7h34l-7 -7Z" fill="#a94126"/>
<rect x="670" y="354" width="34" height="34" fill="#b93e23" />
<path d="M671 355L703 355" stroke="#ffe1bf" fill="none" opacity=".55"/>
</g>
<g class="tile" style="animation-delay:558ms">
<path d="M743 354l7 7v34l-7 -7Z" fill="#87351f"/>
<path d="M709 388l7 7h34l-7 -7Z" fill="#a94126"/>
<rect x="709" y="354" width="34" height="34" fill="#b93e23" />
<path d="M710 355L742 355" stroke="#ffe1bf" fill="none" opacity=".55"/>
</g>
<path d="M626 112L644 112" stroke="#62635f" fill="none" />
<path d="M635 103L635 121" stroke="#62635f" fill="none" />
<path d="M883 393L901 393" stroke="#62635f" fill="none" />
<path d="M892 384L892 402" stroke="#62635f" fill="none" />
<path d="M48 426L912 426" stroke="#ccc9c0" fill="none" />
<text x="48" y="453" fill="#62635f" font-family="'Courier New',monospace" font-size="13" font-weight="400" letter-spacing="1">GAME SYSTEMS</text>
<text x="386" y="453" fill="#62635f" font-family="'Courier New',monospace" font-size="13" font-weight="400" letter-spacing="1">UI ENGINEERING</text>
<text x="912" y="453" fill="#62635f" font-family="'Courier New',monospace" font-size="13" font-weight="400" text-anchor="end" letter-spacing="1">AUTOMATION</text>
</svg>
