<svg xmlns="http://www.w3.org/2000/svg" width="500" height="100" viewBox="0 0 500 100" role="img" aria-labelledby="title desc">
<title id="title">Projekte</title>
<desc id="desc">Zum Bereich Projekte</desc>
<rect x="0" y="0" width="500" height="100" fill="#10192e"/>
<rect x="8" y="0" width="4" height="100" fill="#344969"/>
<rect x="12" y="0" width="4" height="100" fill="#1a2641"/>
<g shape-rendering="crispEdges">
<rect x="16" y="12" width="468" height="76" fill="#1a2641"/>
<rect x="20" y="12" width="460" height="4" fill="#344969"/>
<rect x="20" y="84" width="460" height="4" fill="#0b1324"/>
<path d="M148 30h4v4h-4zM152 30h4v4h-4zM156 30h4v4h-4zM160 30h4v4h-4zM148 34h4v4h-4zM152 34h4v4h-4zM160 34h4v4h-4zM164 34h4v4h-4zM148 38h4v4h-4zM152 38h4v4h-4zM160 38h4v4h-4zM164 38h4v4h-4zM148 42h4v4h-4zM152 42h4v4h-4zM156 42h4v4h-4zM160 42h4v4h-4zM148 46h4v4h-4zM152 46h4v4h-4zM148 50h4v4h-4zM152 50h4v4h-4zM148 54h4v4h-4zM152 54h4v4h-4zM172 30h4v4h-4zM176 30h4v4h-4zM180 30h4v4h-4zM184 30h4v4h-4zM172 34h4v4h-4zM176 34h4v4h-4zM184 34h4v4h-4zM188 34h4v4h-4zM172 38h4v4h-4zM176 38h4v4h-4zM184 38h4v4h-4zM188 38h4v4h-4zM172 42h4v4h-4zM176 42h4v4h-4zM180 42h4v4h-4zM184 42h4v4h-4zM172 46h4v4h-4zM176 46h4v4h-4zM180 46h4v4h-4zM172 50h4v4h-4zM176 50h4v4h-4zM184 50h4v4h-4zM172 54h4v4h-4zM176 54h4v4h-4zM184 54h4v4h-4zM188 54h4v4h-4zM200 30h4v4h-4zM204 30h4v4h-4zM208 30h4v4h-4zM196 34h4v4h-4zM200 34h4v4h-4zM208 34h4v4h-4zM212 34h4v4h-4zM196 38h4v4h-4zM200 38h4v4h-4zM208 38h4v4h-4zM212 38h4v4h-4zM196 42h4v4h-4zM200 42h4v4h-4zM208 42h4v4h-4zM212 42h4v4h-4zM196 46h4v4h-4zM200 46h4v4h-4zM208 46h4v4h-4zM212 46h4v4h-4zM196 50h4v4h-4zM200 50h4v4h-4zM208 50h4v4h-4zM212 50h4v4h-4zM200 54h4v4h-4zM204 54h4v4h-4zM208 54h4v4h-4zM228 30h4v4h-4zM232 30h4v4h-4zM236 30h4v4h-4zM232 34h4v4h-4zM232 38h4v4h-4zM232 42h4v4h-4zM220 46h4v4h-4zM224 46h4v4h-4zM232 46h4v4h-4zM220 50h4v4h-4zM224 50h4v4h-4zM232 50h4v4h-4zM224 54h4v4h-4zM228 54h4v4h-4zM244 30h4v4h-4zM248 30h4v4h-4zM252 30h4v4h-4zM256 30h4v4h-4zM260 30h4v4h-4zM244 34h4v4h-4zM248 34h4v4h-4zM244 38h4v4h-4zM248 38h4v4h-4zM244 42h4v4h-4zM248 42h4v4h-4zM252 42h4v4h-4zM256 42h4v4h-4zM244 46h4v4h-4zM248 46h4v4h-4zM244 50h4v4h-4zM248 50h4v4h-4zM244 54h4v4h-4zM248 54h4v4h-4zM252 54h4v4h-4zM256 54h4v4h-4zM260 54h4v4h-4zM268 30h4v4h-4zM272 30h4v4h-4zM280 30h4v4h-4zM284 30h4v4h-4zM268 34h4v4h-4zM272 34h4v4h-4zM280 34h4v4h-4zM284 34h4v4h-4zM268 38h4v4h-4zM272 38h4v4h-4zM276 38h4v4h-4zM280 38h4v4h-4zM268 42h4v4h-4zM272 42h4v4h-4zM276 42h4v4h-4zM268 46h4v4h-4zM272 46h4v4h-4zM276 46h4v4h-4zM280 46h4v4h-4zM268 50h4v4h-4zM272 50h4v4h-4zM280 50h4v4h-4zM284 50h4v4h-4zM268 54h4v4h-4zM272 54h4v4h-4zM280 54h4v4h-4zM284 54h4v4h-4zM292 30h4v4h-4zM296 30h4v4h-4zM300 30h4v4h-4zM304 30h4v4h-4zM308 30h4v4h-4zM300 34h4v4h-4zM300 38h4v4h-4zM300 42h4v4h-4zM300 46h4v4h-4zM300 50h4v4h-4zM300 54h4v4h-4zM316 30h4v4h-4zM320 30h4v4h-4zM324 30h4v4h-4zM328 30h4v4h-4zM332 30h4v4h-4zM316 34h4v4h-4zM320 34h4v4h-4zM316 38h4v4h-4zM320 38h4v4h-4zM316 42h4v4h-4zM320 42h4v4h-4zM324 42h4v4h-4zM328 42h4v4h-4zM316 46h4v4h-4zM320 46h4v4h-4zM316 50h4v4h-4zM320 50h4v4h-4zM316 54h4v4h-4zM320 54h4v4h-4zM324 54h4v4h-4zM328 54h4v4h-4zM332 54h4v4h-4z" fill="#edf0d9"/>
<path transform="translate(350 35)" d="M0 0h4v4h4v4h-4v4H0V8h-4V4H0Z" fill="#82cbb9"/>
</g>
</svg>
