<svg xmlns="http://www.w3.org/2000/svg" width="240" height="88" viewBox="0 0 240 88" role="img" aria-labelledby="title desc">
<title id="title">Kontakt</title>
<desc id="desc">Zum Bereich Kontakt</desc>
<rect x="0" y="0" width="240" height="88" fill="#10192e"/>
<style>@keyframes pg-nav-contact-step{0%,70%,100%{transform:translateY(0)}80%,90%{transform:translateY(3px)}}.pg-nav-contact-chevron{animation:pg-nav-contact-step 5.5s steps(1,end) infinite}@media(prefers-reduced-motion:reduce){.pg-nav-contact-chevron{animation:none!important}}</style>
<rect x="228" y="0" width="4" height="88" fill="#344969"/>
<rect x="224" y="0" width="4" height="88" fill="#1a2641"/>
<g class="pg-nav-panel" shape-rendering="crispEdges">
<path d="M16 13H208v4h4v4h4V65h-4v4h-4v4H16v-4h-4v-4h-4V21h4v-4h4Z" transform="translate(0 4)" fill="#0b1324"/>
<path d="M16 13H208v4h4v4h4V65h-4v4h-4v4H16v-4h-4v-4h-4V21h4v-4h4Z" fill="#344969"/>
<path class="pg-nav-fill" d="M18 18H206v3h5V65h-5v3H18v-3h-5V21h5Z" fill="#1a2641"/>
<rect x="20" y="17" width="184" height="2" fill="#51627a"/>
<path d="M32 32h3v3h-3zM35 32h3v3h-3zM41 32h3v3h-3zM44 32h3v3h-3zM32 35h3v3h-3zM35 35h3v3h-3zM41 35h3v3h-3zM44 35h3v3h-3zM32 38h3v3h-3zM35 38h3v3h-3zM38 38h3v3h-3zM41 38h3v3h-3zM32 41h3v3h-3zM35 41h3v3h-3zM38 41h3v3h-3zM32 44h3v3h-3zM35 44h3v3h-3zM38 44h3v3h-3zM41 44h3v3h-3zM32 47h3v3h-3zM35 47h3v3h-3zM41 47h3v3h-3zM44 47h3v3h-3zM32 50h3v3h-3zM35 50h3v3h-3zM41 50h3v3h-3zM44 50h3v3h-3zM53 32h3v3h-3zM56 32h3v3h-3zM59 32h3v3h-3zM50 35h3v3h-3zM53 35h3v3h-3zM59 35h3v3h-3zM62 35h3v3h-3zM50 38h3v3h-3zM53 38h3v3h-3zM59 38h3v3h-3zM62 38h3v3h-3zM50 41h3v3h-3zM53 41h3v3h-3zM59 41h3v3h-3zM62 41h3v3h-3zM50 44h3v3h-3zM53 44h3v3h-3zM59 44h3v3h-3zM62 44h3v3h-3zM50 47h3v3h-3zM53 47h3v3h-3zM59 47h3v3h-3zM62 47h3v3h-3zM53 50h3v3h-3zM56 50h3v3h-3zM59 50h3v3h-3zM68 32h3v3h-3zM71 32h3v3h-3zM80 32h3v3h-3zM68 35h3v3h-3zM71 35h3v3h-3zM80 35h3v3h-3zM68 38h3v3h-3zM71 38h3v3h-3zM74 38h3v3h-3zM80 38h3v3h-3zM68 41h3v3h-3zM71 41h3v3h-3zM74 41h3v3h-3zM77 41h3v3h-3zM80 41h3v3h-3zM68 44h3v3h-3zM71 44h3v3h-3zM77 44h3v3h-3zM80 44h3v3h-3zM68 47h3v3h-3zM71 47h3v3h-3zM80 47h3v3h-3zM68 50h3v3h-3zM71 50h3v3h-3zM80 50h3v3h-3zM86 32h3v3h-3zM89 32h3v3h-3zM92 32h3v3h-3zM95 32h3v3h-3zM98 32h3v3h-3zM92 35h3v3h-3zM92 38h3v3h-3zM92 41h3v3h-3zM92 44h3v3h-3zM92 47h3v3h-3zM92 50h3v3h-3zM107 32h3v3h-3zM110 32h3v3h-3zM113 32h3v3h-3zM104 35h3v3h-3zM107 35h3v3h-3zM113 35h3v3h-3zM116 35h3v3h-3zM104 38h3v3h-3zM107 38h3v3h-3zM113 38h3v3h-3zM116 38h3v3h-3zM104 41h3v3h-3zM107 41h3v3h-3zM110 41h3v3h-3zM113 41h3v3h-3zM116 41h3v3h-3zM104 44h3v3h-3zM107 44h3v3h-3zM113 44h3v3h-3zM116 44h3v3h-3zM104 47h3v3h-3zM107 47h3v3h-3zM113 47h3v3h-3zM116 47h3v3h-3zM104 50h3v3h-3zM107 50h3v3h-3zM113 50h3v3h-3zM116 50h3v3h-3zM122 32h3v3h-3zM125 32h3v3h-3zM131 32h3v3h-3zM134 32h3v3h-3zM122 35h3v3h-3zM125 35h3v3h-3zM131 35h3v3h-3zM134 35h3v3h-3zM122 38h3v3h-3zM125 38h3v3h-3zM128 38h3v3h-3zM131 38h3v3h-3zM122 41h3v3h-3zM125 41h3v3h-3zM128 41h3v3h-3zM122 44h3v3h-3zM125 44h3v3h-3zM128 44h3v3h-3zM131 44h3v3h-3zM122 47h3v3h-3zM125 47h3v3h-3zM131 47h3v3h-3zM134 47h3v3h-3zM122 50h3v3h-3zM125 50h3v3h-3zM131 50h3v3h-3zM134 50h3v3h-3zM140 32h3v3h-3zM143 32h3v3h-3zM146 32h3v3h-3zM149 32h3v3h-3zM152 32h3v3h-3zM146 35h3v3h-3zM146 38h3v3h-3zM146 41h3v3h-3zM146 44h3v3h-3zM146 47h3v3h-3zM146 50h3v3h-3z" fill="#edf0d9"/>
<g transform="translate(171 36)">
<g class="pg-nav-contact-chevron">
<path d="M0 0h4v4h4v4h4V4h4V0h4v4h-4v4h-4v4H8V8H4V4H0Z" fill="#82cbb9"/>
</g></g></g>
</svg>
