<svg xmlns="http://www.w3.org/2000/svg" width="240" height="88" viewBox="0 0 240 88" role="img" aria-labelledby="title desc">
<title id="title">Kontakt</title>
<desc id="desc">Zum Bereich Kontakt</desc>
<rect x="0" y="0" width="240" height="88" fill="#10192e"/>
<rect x="228" y="0" width="4" height="88" fill="#344969"/>
<rect x="224" y="0" width="4" height="88" fill="#1a2641"/>
<g shape-rendering="crispEdges">
<rect x="16" y="12" width="208" height="64" fill="#1a2641"/>
<rect x="20" y="12" width="200" height="4" fill="#344969"/>
<rect x="20" y="72" width="200" height="4" fill="#0b1324"/>
<path d="M50 26h3v3h-3zM53 26h3v3h-3zM59 26h3v3h-3zM62 26h3v3h-3zM50 29h3v3h-3zM53 29h3v3h-3zM59 29h3v3h-3zM62 29h3v3h-3zM50 32h3v3h-3zM53 32h3v3h-3zM56 32h3v3h-3zM59 32h3v3h-3zM50 35h3v3h-3zM53 35h3v3h-3zM56 35h3v3h-3zM50 38h3v3h-3zM53 38h3v3h-3zM56 38h3v3h-3zM59 38h3v3h-3zM50 41h3v3h-3zM53 41h3v3h-3zM59 41h3v3h-3zM62 41h3v3h-3zM50 44h3v3h-3zM53 44h3v3h-3zM59 44h3v3h-3zM62 44h3v3h-3zM71 26h3v3h-3zM74 26h3v3h-3zM77 26h3v3h-3zM68 29h3v3h-3zM71 29h3v3h-3zM77 29h3v3h-3zM80 29h3v3h-3zM68 32h3v3h-3zM71 32h3v3h-3zM77 32h3v3h-3zM80 32h3v3h-3zM68 35h3v3h-3zM71 35h3v3h-3zM77 35h3v3h-3zM80 35h3v3h-3zM68 38h3v3h-3zM71 38h3v3h-3zM77 38h3v3h-3zM80 38h3v3h-3zM68 41h3v3h-3zM71 41h3v3h-3zM77 41h3v3h-3zM80 41h3v3h-3zM71 44h3v3h-3zM74 44h3v3h-3zM77 44h3v3h-3zM86 26h3v3h-3zM89 26h3v3h-3zM98 26h3v3h-3zM86 29h3v3h-3zM89 29h3v3h-3zM98 29h3v3h-3zM86 32h3v3h-3zM89 32h3v3h-3zM92 32h3v3h-3zM98 32h3v3h-3zM86 35h3v3h-3zM89 35h3v3h-3zM92 35h3v3h-3zM95 35h3v3h-3zM98 35h3v3h-3zM86 38h3v3h-3zM89 38h3v3h-3zM95 38h3v3h-3zM98 38h3v3h-3zM86 41h3v3h-3zM89 41h3v3h-3zM98 41h3v3h-3zM86 44h3v3h-3zM89 44h3v3h-3zM98 44h3v3h-3zM104 26h3v3h-3zM107 26h3v3h-3zM110 26h3v3h-3zM113 26h3v3h-3zM116 26h3v3h-3zM110 29h3v3h-3zM110 32h3v3h-3zM110 35h3v3h-3zM110 38h3v3h-3zM110 41h3v3h-3zM110 44h3v3h-3zM125 26h3v3h-3zM128 26h3v3h-3zM131 26h3v3h-3zM122 29h3v3h-3zM125 29h3v3h-3zM131 29h3v3h-3zM134 29h3v3h-3zM122 32h3v3h-3zM125 32h3v3h-3zM131 32h3v3h-3zM134 32h3v3h-3zM122 35h3v3h-3zM125 35h3v3h-3zM128 35h3v3h-3zM131 35h3v3h-3zM134 35h3v3h-3zM122 38h3v3h-3zM125 38h3v3h-3zM131 38h3v3h-3zM134 38h3v3h-3zM122 41h3v3h-3zM125 41h3v3h-3zM131 41h3v3h-3zM134 41h3v3h-3zM122 44h3v3h-3zM125 44h3v3h-3zM131 44h3v3h-3zM134 44h3v3h-3zM140 26h3v3h-3zM143 26h3v3h-3zM149 26h3v3h-3zM152 26h3v3h-3zM140 29h3v3h-3zM143 29h3v3h-3zM149 29h3v3h-3zM152 29h3v3h-3zM140 32h3v3h-3zM143 32h3v3h-3zM146 32h3v3h-3zM149 32h3v3h-3zM140 35h3v3h-3zM143 35h3v3h-3zM146 35h3v3h-3zM140 38h3v3h-3zM143 38h3v3h-3zM146 38h3v3h-3zM149 38h3v3h-3zM140 41h3v3h-3zM143 41h3v3h-3zM149 41h3v3h-3zM152 41h3v3h-3zM140 44h3v3h-3zM143 44h3v3h-3zM149 44h3v3h-3zM152 44h3v3h-3zM158 26h3v3h-3zM161 26h3v3h-3zM164 26h3v3h-3zM167 26h3v3h-3zM170 26h3v3h-3zM164 29h3v3h-3zM164 32h3v3h-3zM164 35h3v3h-3zM164 38h3v3h-3zM164 41h3v3h-3zM164 44h3v3h-3z" fill="#edf0d9"/>
<path transform="translate(187 31)" d="M0 0h4v4h4v4h-4v4H0V8h-4V4H0Z" fill="#82cbb9"/>
</g>
</svg>
